# xmcd
#
# Track frame offsets: 
#        150
#        14123
#        29824
#        61781
#        82860
#        100820
#        109499
#        128866
#        142117
#        166726
#        178693
#        191464
#
# Disc length: 2933 seconds
#
# Revision: 0
# Processed by: cddbd v1.5.2PL0 Copyright (c) Steve Scherf et al.
# Submitted via: ExactAudioCopy v1.2
#
DISCID=a50b730c
DTITLE=Doctor Love Power - Pete The Painter
DYEAR=2018
DGENRE=Blues
TTITLE0=Stop Wasting My Time
TTITLE1=Pete The Painter
TTITLE2=Next Time People
TTITLE3=Moaning
TTITLE4=Come Along
TTITLE5=Life On Mars
TTITLE6=Living On Music
TTITLE7=Politicians
TTITLE8=Lonesome Blues
TTITLE9=Devil’s Prayer
TTITLE10=Coffee Roller
TTITLE11=Careless Love
EXTD=
EXTT0=
EXTT1=
EXTT2=
EXTT3=
EXTT4=
EXTT5=
EXTT6=
EXTT7=
EXTT8=
EXTT9=
EXTT10=
EXTT11=
PLAYORDER=
